<svg width="17" height="14" viewBox="0 0 17 14" fill="none" xmlns="http://www.w3.org/2000/svg">
<path d="M15.3 13.9992H1.7C0.790942 14.0272 0.030957 13.2934 0 12.3579V1.64124C0.0309485 0.705807 0.791078 -0.0276926 1.7 0.000802913H15.3C16.2089 -0.0276926 16.9691 0.705807 17 1.64124V12.3588C16.9685 13.294 16.2087 14.0272 15.3 13.9992ZM1.7 1.75061V12.2398L15.3 12.2494V1.76023L1.7 1.75061ZM9.7155 10.4996H3.4C3.4625 9.77529 3.79554 9.10406 4.32905 8.62733C4.92306 8.02076 5.72119 7.67299 6.55775 7.65619C7.39432 7.67299 8.19247 8.02076 8.78645 8.62733C9.31983 9.10424 9.65286 9.77529 9.7155 10.4996ZM13.6 9.62472H11.05V7.87491H13.6V9.62472ZM6.55775 7.00001C6.10221 7.01629 5.66055 6.83719 5.33825 6.50543C5.01593 6.17367 4.84192 5.71907 4.85775 5.25021C4.84218 4.7814 5.01627 4.32696 5.33853 3.99527C5.66078 3.66358 6.10229 3.48438 6.55775 3.50041C7.01318 3.48438 7.45475 3.66358 7.77699 3.99527C8.09923 4.32696 8.2733 4.7814 8.25775 5.25021C8.27356 5.71907 8.09957 6.17367 7.77725 6.50543C7.45493 6.83719 7.01327 7.01629 6.55775 7.00001ZM13.6 6.12511H10.2V4.37531H13.6V6.12511Z" fill="black"/>
</svg>
