<svg width="13" height="14" viewBox="0 0 13 14" fill="none" xmlns="http://www.w3.org/2000/svg">
<path d="M11.2986 14H0.753243C0.337242 14 0 13.6628 0 13.2468V6.02617C0 5.82641 0.0794296 5.63486 0.2207 5.49363L5.4934 0.220911C5.63471 0.0794746 5.82641 0 6.02632 0C6.22623 0 6.41793 0.0794746 6.55924 0.220911L11.8319 5.49363C11.9733 5.63471 12.0526 5.82641 12.0519 6.02617V13.2468C12.0519 13.6628 11.7147 14 11.2986 14ZM4.51946 8.7273H7.53243V12.4935H10.5454V6.33801L6.02594 1.81854L1.50649 6.33801V12.4935H4.51946V8.7273Z" fill="black"/>
</svg>
