<svg width="16" height="15" viewBox="0 0 16 15" fill="none" xmlns="http://www.w3.org/2000/svg">
<path d="M5.64703 0C3.56784 0 1.88232 1.89621 1.88232 4.23529C1.88232 6.57436 3.56784 8.47059 5.64703 8.47059C7.7262 8.47059 9.41174 6.57436 9.41174 4.23529C9.41174 1.89621 7.7262 0 5.64703 0ZM3.38821 4.23529C3.38821 2.83185 4.39952 1.69412 5.64703 1.69412C6.89458 1.69412 7.90585 2.83185 7.90585 4.23529C7.90585 5.63874 6.89458 6.77647 5.64703 6.77647C4.39952 6.77647 3.38821 5.63874 3.38821 4.23529Z" fill="black"/>
<path d="M11.8293 4.38954C11.6211 4.28829 11.3907 4.2355 11.157 4.2355V2.82373C11.6245 2.82373 12.0853 2.92926 12.5018 3.13177C12.5477 3.15408 12.5928 3.17749 12.6373 3.20197C12.9966 3.39979 13.3088 3.66771 13.5531 3.98879C13.8277 4.34962 14.0087 4.76732 14.0815 5.20773C14.1543 5.64815 14.1167 6.09872 13.9717 6.5226C13.8268 6.94642 13.5787 7.33155 13.2477 7.64637C12.9167 7.96127 12.5123 8.19682 12.0674 8.33398C11.6716 8.45595 11.2538 8.49689 10.8413 8.45468C10.7903 8.44946 10.7393 8.44297 10.6885 8.4352C10.2272 8.36468 9.78997 8.19111 9.41248 7.92859L9.41174 7.92802L10.2843 6.78766C10.4731 6.91903 10.6919 7.00592 10.9227 7.04115C11.1535 7.07644 11.3898 7.05908 11.6122 6.99053C11.8346 6.92199 12.0368 6.80418 12.2023 6.64677C12.3678 6.48936 12.4919 6.29679 12.5643 6.08488C12.6368 5.87298 12.6556 5.64766 12.6192 5.42748C12.5828 5.20729 12.4923 4.99845 12.355 4.81804C12.2177 4.63763 12.0376 4.49079 11.8293 4.38954Z" fill="black"/>
<path d="M14.4299 14.1175C14.4299 13.7057 14.3488 13.298 14.1912 12.9175C14.0336 12.537 13.8026 12.1914 13.5115 11.9002C13.2202 11.609 12.8746 11.3781 12.4941 11.2204C12.1137 11.0628 11.7059 10.9817 11.2941 10.9817V9.41162C11.8291 9.41162 12.3595 9.50284 12.8628 9.68072C12.9409 9.70833 13.0183 9.73805 13.095 9.76982C13.666 10.0064 14.1847 10.353 14.6217 10.79C15.0587 11.2269 15.4053 11.7457 15.6418 12.3166C15.6736 12.3933 15.7033 12.4708 15.7309 12.5489C15.9088 13.0521 16 13.5825 16 14.1175H14.4299Z" fill="black"/>
<path d="M11.2941 14.1178H9.68067C9.68067 11.8901 7.87474 10.0841 5.64706 10.0841C3.41936 10.0841 1.61345 11.8901 1.61345 14.1178H0C0 10.999 2.52828 8.4707 5.64706 8.4707C8.76585 8.4707 11.2941 10.999 11.2941 14.1178Z" fill="black"/>
</svg>
