<svg width="13" height="13" viewBox="0 0 13 13" fill="none" xmlns="http://www.w3.org/2000/svg">
<path d="M12.633 0.378289C12.3079 0.0445888 11.8267 -0.0797308 11.378 0.0511319L0.915198 3.09369C0.441804 3.22521 0.106267 3.60275 0.0158796 4.08236C-0.0764582 4.57048 0.246074 5.19011 0.667446 5.44922L3.93894 7.45993C4.27447 7.66603 4.70755 7.61434 4.98521 7.3343L8.7314 3.5648C8.91997 3.3685 9.2321 3.3685 9.42068 3.5648C9.60926 3.75455 9.60926 4.06207 9.42068 4.25837L5.66799 8.02852C5.38968 8.30792 5.33766 8.74303 5.54249 9.08066L7.54141 12.3849C7.77551 12.7775 8.17867 13 8.62085 13C8.67287 13 8.7314 13 8.78342 12.9935C9.29063 12.928 9.69379 12.5812 9.84335 12.0905L12.9451 1.64111C13.0817 1.19618 12.9581 0.711989 12.633 0.378289Z" fill="white"/>
</svg>
